<?xml version="1.0" encoding="UTF-8" standalone="no"?>
<svg
   xmlns="http://www.w3.org/2000/svg"
   x="0px"
   y="0px"
   viewBox="0 0 89.74769 102.23278" style="align:left" preserveAspectRatio="xMinYMin meet">  <ellipse
     cx="0"
     cy="0"
     rx="43.873844"
     ry="18.185282"
	transform="translate(45 84)"
     style="fill:#00aaff;stroke:#001580;stroke-width:2"
     id="ellipse_shape">
<animate attributeName="opacity"
             values="0;1;.5;0" dur="1.5s"
             repeatCount="2" fill="freeze" />	
<animateTransform attributeName="transform"
             type="scale"
             additive="sum" 
             values=".25 .25; 1 1"
             begin="0s"
             dur="1.5s"
             repeatCount="2" />
	</ellipse>
  <path
     d="M 73.539288,30.878 C 73.539288,14.101 60.637382,0.5 44.720604,0.5 28.803827,0.5 15.901921,14.1 15.901921,30.878 c 0,7.065 2.28914,13.568 6.126508,18.728 H 22.02748 L 44.720604,84.16 67.41278,49.606 h -9.49e-4 c 3.839266,-5.16 6.127457,-11.662 6.127457,-18.728 z M 44.720604,47.211 c -8.556999,0 -15.493671,-7.312 -15.493671,-16.332 0,-9.02 6.936672,-16.333 15.493671,-16.333 8.557,0 15.493671,7.312 15.493671,16.332 0,9.02 -6.936671,16.333 -15.493671,16.333 z"
     id="pin_shape"
     style="fill:#001580;stroke:#000000;stroke-width:1" />
</svg>
